<svg xmlns="http://www.w3.org/2000/svg" viewBox="0 0 25 50" id="desktop">
  <path d="M23.1265625,18.3375 C23.1265625,18.3375 23.1265625,18.3375 23.1265625,18.3375 C23.1265625,18.3375 20.3484375,15.5117188 20.3484375,15.5117188 C20.0609375,15.2242188 19.7257813,15.0804687 19.2945313,15.0804687 C19.2945313,15.0804687 19.2945313,15.0804687 19.2945313,15.0804687 C18.8632812,15.0804687 18.4804688,15.2242188 18.240625,15.5117188 C18.240625,15.5117188 18.240625,15.5117188 18.240625,15.5117188 C18.240625,15.5117188 16.9953125,16.709375 16.9953125,16.709375 C16.8515625,16.9007813 16.6601562,16.996875 16.325,16.996875 C16.325,16.996875 16.325,16.996875 16.325,16.996875 C16.1335937,16.996875 15.9421875,16.9492188 15.7984375,16.853125 C15.7984375,16.853125 15.7984375,16.853125 15.7984375,16.853125 C14.0742187,15.8476562 12.5414062,14.6976562 11.2007813,13.4046875 C11.2007813,13.4046875 11.2007813,13.4046875 11.2007813,13.4046875 C9.95546875,12.1117187 8.80625,10.6265625 7.80078125,8.95078125 C7.80078125,8.95078125 7.80078125,8.95078125 7.80078125,8.95078125 C7.65703125,8.71171875 7.609375,8.471875 7.609375,8.28046875 C7.609375,8.28046875 7.609375,8.28046875 7.609375,8.28046875 C7.609375,7.99296875 7.70546875,7.75390625 7.896875,7.61015625 C7.896875,7.61015625 7.896875,7.61015625 7.896875,7.61015625 C7.896875,7.61015625 9.09453125,6.36484375 9.09453125,6.36484375 C9.38203125,6.12578125 9.52578125,5.78984375 9.52578125,5.3109375 C9.52578125,5.3109375 9.52578125,5.3109375 9.52578125,5.3109375 C9.52578125,4.8796875 9.38203125,4.54453125 9.09453125,4.25703125 C9.09453125,4.25703125 9.09453125,4.25703125 9.09453125,4.25703125 C9.09453125,4.25703125 6.26875,1.47890625 6.26875,1.47890625 C6.0296875,1.14375 5.64609375,1 5.21484375,1 C5.21484375,1 5.21484375,1 5.21484375,1 C4.83203125,1 4.49609375,1.14375 4.1609375,1.47890625 C4.1609375,1.47890625 4.1609375,1.47890625 4.1609375,1.47890625 C4.1609375,1.47890625 2.484375,3.15546875 2.484375,3.15546875 C1.47890625,4.1609375 1,5.3109375 1,6.6515625 C1,6.6515625 1,6.6515625 1,6.6515625 C1,7.65703125 1.2875,8.61484375 1.91015625,9.47734375 C1.91015625,9.47734375 1.91015625,9.47734375 1.91015625,9.47734375 C3.68203125,12.159375 5.59765625,14.65 7.70546875,16.9484375 C7.70546875,16.9484375 7.70546875,16.9484375 7.70546875,16.9484375 C9.76484375,18.8164062 12.159375,20.684375 14.8890625,22.5515625 C14.8890625,22.5515625 14.8890625,22.5515625 14.8890625,22.5515625 C15.7992187,23.221875 16.8523437,23.5570313 17.9539062,23.5570313 C17.9539062,23.5570313 17.9539062,23.5570313 17.9539062,23.5570313 C19.3429687,23.5570313 20.4921875,23.078125 21.45,22.1203125 C21.45,22.1203125 21.45,22.1203125 21.45,22.1203125 C21.45,22.1203125 23.1265625,20.44375 23.1265625,20.44375 C23.4617187,20.1085938 23.6054688,19.7734375 23.6054688,19.3898438 C23.6054688,19.3898438 23.6054688,19.3898438 23.6054688,19.3898438 C23.6054688,18.9585938 23.4617187,18.5757813 23.1265625,18.3359375 L23.1265625,18.3375 Z M22.45625,19.7257813 C22.45625,19.7257813 22.45625,19.7257813 22.45625,19.7257813 C22.45625,19.7257813 20.7796875,21.45 20.7796875,21.45 C20.0132812,22.2164063 19.0554688,22.5992188 17.9539063,22.5992188 C17.9539063,22.5992188 17.9539063,22.5992188 17.9539063,22.5992188 C17.0921875,22.5992188 16.3257813,22.3601562 15.6546875,21.8804688 C15.6546875,21.8804688 15.6546875,21.8804688 15.6546875,21.8804688 C13.1640625,20.2039062 10.721875,18.3367188 8.32734375,16.18125 C8.32734375,16.18125 8.32734375,16.18125 8.32734375,16.18125 C6.2203125,13.834375 4.4,11.4875 2.8671875,9.14140625 C2.8671875,9.14140625 2.8671875,9.14140625 2.8671875,9.14140625 C2.2921875,8.32734375 2.00546875,7.51328125 2.00546875,6.65078125 C2.00546875,6.65078125 2.00546875,6.65078125 2.00546875,6.65078125 C2.00546875,5.54921875 2.38828125,4.59140625 3.1546875,3.825 C3.1546875,3.825 3.1546875,3.825 3.1546875,3.825 C3.1546875,3.825 4.87890625,2.1484375 4.87890625,2.1484375 C4.975,2.05234375 5.0703125,2.0046875 5.2140625,2.0046875 C5.2140625,2.0046875 5.2140625,2.0046875 5.2140625,2.0046875 C5.3578125,2.0046875 5.5015625,2.05234375 5.596875,2.1484375 C5.596875,2.1484375 5.596875,2.1484375 5.596875,2.1484375 C5.596875,2.1484375 8.375,4.97421875 8.375,4.97421875 C8.51875,5.11796875 8.56640625,5.21328125 8.56640625,5.309375 C8.56640625,5.309375 8.56640625,5.309375 8.56640625,5.309375 C8.56640625,5.453125 8.51875,5.5484375 8.375,5.6921875 C8.375,5.6921875 8.375,5.6921875 8.375,5.6921875 C8.375,5.6921875 7.17734375,6.88984375 7.17734375,6.88984375 C6.79453125,7.32109375 6.60234375,7.8 6.60234375,8.27890625 C6.60234375,8.27890625 6.60234375,8.27890625 6.60234375,8.27890625 C6.60234375,8.71015625 6.6984375,9.0453125 6.88984375,9.3328125 C6.88984375,9.3328125 6.88984375,9.3328125 6.88984375,9.3328125 C7.99140625,11.1046875 9.23671875,12.7335938 10.5296875,14.121875 C10.5296875,14.121875 10.5296875,14.121875 10.5296875,14.121875 C12.0140625,15.5109375 13.5945313,16.7078125 15.175,17.6179688 C15.175,17.6179688 15.175,17.6179688 15.175,17.6179688 C15.5101562,17.8570312 15.89375,18.0007813 16.3242188,18.0007813 C16.3242188,18.0007813 16.3242188,18.0007813 16.3242188,18.0007813 C16.803125,18.0007813 17.2820313,17.809375 17.7132813,17.4257812 C17.7132813,17.4257812 17.7132813,17.4257812 17.7132813,17.4257812 C17.7132813,17.4257812 18.9109375,16.228125 18.9109375,16.228125 C19.0546875,16.084375 19.15,16.0367187 19.29375,16.0367187 C19.29375,16.0367187 19.29375,16.0367187 19.29375,16.0367187 C19.3898437,16.0367187 19.4851563,16.084375 19.6289062,16.228125 C19.6289062,16.228125 19.6289062,16.228125 19.6289062,16.228125 C19.6289062,16.228125 22.4546875,19.00625 22.4546875,19.00625 C22.5507812,19.1023437 22.5984375,19.2453125 22.5984375,19.3890625 C22.5984375,19.3890625 22.5984375,19.3890625 22.5984375,19.3890625 C22.5984375,19.5328125 22.5507812,19.628125 22.4546875,19.7242187 L22.45625,19.7257813 Z"/>
  <g transform="translate(0 25)">
  <path d="M23.0367187,2 C23.0367187,2 23.0367187,2 23.0367187,2 C23.0367187,2 1.48515625,2 1.48515625,2 C1.05390625,2 0.71875,2.14375 0.43125,2.43125 C0.14375,2.71875 0,3.05390625 0,3.48515625 C0,3.48515625 0,3.48515625 0,3.48515625 C0,3.48515625 0,20.1515625 0,20.1515625 C0,20.5828125 0.14375,20.9179688 0.43125,21.2054688 C0.71875,21.4929687 1.05390625,21.6367188 1.48515625,21.6367188 C1.48515625,21.6367188 1.48515625,21.6367188 1.48515625,21.6367188 C1.48515625,21.6367188 23.0367187,21.6367188 23.0367187,21.6367188 C23.4679687,21.6367188 23.803125,21.4929687 24.090625,21.2054688 C24.378125,20.9179688 24.521875,20.5828125 24.521875,20.1515625 C24.521875,20.1515625 24.521875,20.1515625 24.521875,20.1515625 C24.521875,20.1515625 24.521875,3.48515625 24.521875,3.48515625 C24.521875,3.05390625 24.378125,2.71875 24.090625,2.43125 C23.803125,2.14375 23.4679687,2 23.0367187,2 Z M23.5632813,3.48515625 C23.5632813,3.48515625 23.5632813,20.1515625 23.5632813,20.1515625 C23.5632813,20.4867188 23.371875,20.6304687 23.0367188,20.6304687 C23.0367188,20.6304687 23.0367188,20.6304687 23.0367188,20.6304687 C23.0367188,20.6304687 1.48515625,20.6304687 1.48515625,20.6304687 C1.15,20.6304687 0.95859375,20.4867188 0.95859375,20.1515625 C0.95859375,20.1515625 0.95859375,20.1515625 0.95859375,20.1515625 C0.95859375,20.1515625 0.95859375,3.48515625 0.95859375,3.48515625 C0.95859375,3.15 1.15,2.95859375 1.48515625,2.95859375 C1.48515625,2.95859375 1.48515625,2.95859375 1.48515625,2.95859375 C1.48515625,2.95859375 23.0367188,2.95859375 23.0367188,2.95859375 C23.371875,2.95859375 23.5632813,3.15 23.5632813,3.48515625 C23.5632813,3.48515625 23.5632813,3.48515625 23.5632813,3.48515625 Z M20.59375,4.921875 C20.59375,4.921875 20.59375,4.921875 20.59375,4.921875 C20.59375,4.921875 16.6664062,4.921875 16.6664062,4.921875 C16.4273437,4.921875 16.1875,5.01796875 15.9960937,5.209375 C15.8046875,5.4484375 15.7085937,5.68828125 15.7085937,5.928125 C15.7085937,5.928125 15.7085937,5.928125 15.7085937,5.928125 C15.7085937,5.928125 15.7085937,9.85546875 15.7085937,9.85546875 C15.7085937,10.0945313 15.8046875,10.334375 15.9960937,10.5257813 C16.1875,10.7171875 16.4273437,10.8132813 16.6664062,10.8132813 C16.6664062,10.8132813 16.6664062,10.8132813 16.6664062,10.8132813 C16.6664062,10.8132813 20.59375,10.8132813 20.59375,10.8132813 C20.8328125,10.8132813 21.0726562,10.7171875 21.3125,10.5257813 C21.5039062,10.334375 21.6,10.0945313 21.6,9.85546875 C21.6,9.85546875 21.6,9.85546875 21.6,9.85546875 C21.6,9.85546875 21.6,5.928125 21.6,5.928125 C21.6,5.6890625 21.5039062,5.44921875 21.3125,5.209375 C21.0734375,5.01796875 20.8335938,4.921875 20.59375,4.921875 Z M20.59375,5.92734375 C20.59375,5.92734375 20.59375,9.8546875 20.59375,9.8546875 C20.59375,9.8546875 16.6664062,9.8546875 16.6664062,9.8546875 C16.6664062,9.8546875 16.6664062,5.92734375 16.6664062,5.92734375 C16.6664062,5.92734375 20.59375,5.92734375 20.59375,5.92734375 L20.59375,5.92734375 Z M4.40625,14.7398437 C4.07109375,14.7398437 3.92734375,14.5960937 3.92734375,14.2609375 C3.92734375,13.9257812 4.07109375,13.7820312 4.40625,13.7820312 C4.40625,13.7820312 4.40625,13.7820312 4.40625,13.7820312 C4.40625,13.7820312 11.303125,13.7820312 11.303125,13.7820312 C11.6382812,13.7820312 11.7820312,13.9257812 11.7820312,14.2609375 C11.7820312,14.5960937 11.6382812,14.7398437 11.303125,14.7398437 C11.303125,14.7398437 11.303125,14.7398437 11.303125,14.7398437 C11.303125,14.7398437 4.40625,14.7398437 4.40625,14.7398437 Z M14.703125,17.1820313 C14.703125,17.1820313 14.703125,17.1820313 14.703125,17.1820313 C14.703125,17.5171875 14.559375,17.7085937 14.2242187,17.7085937 C14.2242187,17.7085937 14.2242187,17.7085937 14.2242187,17.7085937 C14.2242187,17.7085937 4.40625,17.7085937 4.40625,17.7085937 C4.07109375,17.7085937 3.92734375,17.5171875 3.92734375,17.1820313 C3.92734375,17.1820313 3.92734375,17.1820313 3.92734375,17.1820313 C3.92734375,16.846875 4.07109375,16.703125 4.40625,16.703125 C4.40625,16.703125 4.40625,16.703125 4.40625,16.703125 C4.40625,16.703125 14.2242187,16.703125 14.2242187,16.703125 C14.559375,16.703125 14.703125,16.846875 14.703125,17.1820313 Z"/>
  </g>
</svg>
