<svg xmlns="http://www.w3.org/2000/svg" xmlns:xlink="http://www.w3.org/1999/xlink" fill="none" viewBox="0 0 1200 486">
  <defs>
    <path id="a" fill="#F6F6F6" d="M0 0h1200v486H0z"/>
  </defs>
  <mask id="b" width="1200" height="486" x="0" y="0" maskUnits="userSpaceOnUse" style="mask-type:alpha">
    <use xlink:href="#a"/>
  </mask>
  <g mask="url(#b)">
    <use xlink:href="#a"/>
    <path fill="#EBEBEB" fill-opacity=".65" fill-rule="evenodd" d="M1220.32 365.768c88.46-113.355 182.14-239.393 172.37-377.743-9.78-138.327-102.74-262.793-199.58-357.945l5.67 8.876a121.2 121.2 0 0 1 12.73 19.882l-12.73-19.902c-38.67-49.914-111.16-64.717-175.45-71.869-68.581-7.633-138.384-13.335-206.361-.084-68.024 13.175-201.757 53.462-242.164 111.76-42.054 60.721-75.471 135.127-72.803 209.241C505.887-4.721 622.233 99.62 665.695 196.668c38.913 86.838 95.516 168.833 176.725 214.844 117.31 66.448 273.46 42.99 377.9-45.764" clip-rule="evenodd"/>
    <path fill="#B6B6B6" fill-opacity=".12" fill-rule="evenodd" d="M666.688 1139.22c107.609 21.4 225.337 41.47 308.41-26.13 83.052-67.61 123.282-195.439 143.472-313.68l-3.26 8.349c-1.9 6.545-4.34 12.818-7.3 18.73l7.31-18.74c15.56-52.372-4.83-116.475-26.69-170.75-23.31-57.899-48.33-115.934-84.54-164.319-36.175-48.455-116.352-137.495-169.609-144.452-55.457-7.221-115.986-1.646-161.539 32.529-65.938 49.492-83.916 187.235-127.181 263.804-38.704 68.531-67.108 149.05-62.777 233.596 6.268 122.125 85.044 236.293 183.716 281.053" clip-rule="evenodd"/>
  </g>
</svg>
