<svg xmlns="http://www.w3.org/2000/svg" fill="none" viewBox="0 0 560 471">
  <path fill="#fff" fill-rule="evenodd" d="M524.397 187.804c-46.958-41.452-99.401-85.578-162.543-86.774-63.132-1.188-124.106 33.051-171.995 70.041l4.3-2.039a58.467 58.467 0 0 1 9.635-4.579l-9.644 4.579c-24.521 14.316-34.815 44.16-41.238 70.861-6.853 28.483-12.891 57.552-10.256 86.579 2.598 29.044 14.222 86.695 38.624 105.878 25.417 19.968 57.461 36.835 91.159 38.551 48.786 2.476 101.803-42.346 147.909-56.868 41.255-13.004 81.193-33.615 106.053-65.927 35.903-46.676 33.012-113.089-2.013-160.302" clip-rule="evenodd"/>
  <mask id="a" width="466" height="467" x="51" y="0" maskUnits="userSpaceOnUse" style="mask-type:alpha">
    <ellipse cx="283.524" cy="233.5" fill="#C4C4C4" rx="232.5" ry="233.5"/>
  </mask>
  <g mask="url(#a)">
    <path fill="url(#b)" d="M330.455 138.506c14.686 7.607 25.467 22.505 21.155 34.598-2.174 6.754-5.55 12.984-6.161 20.189-.744 6.778.879 13.25 6.889 18.871 6.009 5.62 12.884 10.972 18.028 16.86 11.25 13.349 11.818 30.478 4.045 43.644-7.773 13.165-22.588 21.967-39.591 26.77-21.329 6.143-53.376 17.48-76.643 9.726-23.133-7.328-44.851-25.383-50.634-45.571-2.478-9.521-4.247-24.406-2.734-33.294 3.254-15.506 20.1-25.405 29.303-38.546 7.268-10.204 10.583-22.455 16.157-33.537 5.706-10.654 16.604-22.918 30.446-27.209 14.276-4.425 36.748.769 49.74 7.499Z"/>
    <path fill="#F5BCC7" d="m343.279 420.077 2.934 2.427c2.525 1.955 5.56 3.07 9.073 3.783l1.33.103c2.66.206 5.831-.428 8.15-1.568 1.841-.737 3.265-1.534 5.319-2.356.92-.369 2.079-1.03 3-1.398.921-.369 1.539-.656 2.901-1.326 2.318-1.14 4.532-2.497 6.407-3.671 2.318-1.14 4.193-2.315 6.512-3.455 2.318-1.14 4.193-2.314 6.102-3.926 1.875-1.174 4.194-2.314 6.103-3.926 1.875-1.174 3.784-2.786 5.659-3.96 1.875-1.175 3.784-2.786 5.659-3.961.954-.806 1.875-1.174 2.83-1.98.954-.806 1.875-1.174 2.829-1.98 1.875-1.175 3.341-2.821 5.216-3.995 6.681-5.641 12.886-10.879 18.237-16.623 1.432-1.208 2.898-2.854 3.886-4.098 1.432-1.208 2.454-2.889 3.442-4.132 2.421-2.452 4.431-5.375 6.408-7.862 1.977-2.486 3.954-4.972 5.453-7.055.989-1.243 1.5-2.084 2.488-3.327.989-1.243.749-3.901 7.876-3.788 5.32.412 2.568 2.958 4.135 0 1.602-3.396 3.851-2.927 4.43-4.641.612-2.153-1.325 1.363-2.178.857-.852-.506-2.055-1.595-3.897-.857-1.841.737-2.797-1.987-5.627-.007-2.83 1.98-9.637-4.042-13.421-1.256-.954.806-2.942-1.276-3.896-.47-.955.806-1.817.248-3.215 1.019-2.352 1.577-4.261 3.189-7.091 5.169-2.352 1.577-5.182 3.558-7.534 5.135-1.398.771-2.83 1.98-4.228 2.752-1.398.771-2.829 1.98-4.227 2.751-5.659 3.961-12.171 7.415-19.16 11.272-1.842.737-3.273 1.946-5.115 2.683-.92.369-1.841.737-2.795 1.543-.921.369-1.841.737-2.796 1.543-1.841.737-3.716 1.912-5.557 2.649-1.842.737-3.717 1.911-5.558 2.648-1.841.737-3.716 1.912-5.557 2.649-1.841.737-3.717 1.911-6.001 2.614-1.841.737-4.16 1.877-6.001 2.614-.887-.069-1.739-.575-2.626-.643-1.57-2.762-3.174-5.086-4.744-7.847-3.515-6.431-7.064-12.426-10.17-18.385-.785-1.381-1.161-2.29-1.946-3.671.034-.437-.409-.471-.375-.909l-2.355-4.142c-.376-.908-.785-1.38-1.195-1.852-.375-.909-.785-1.38-1.194-1.852-.785-1.381-1.57-2.761-1.912-4.108-2.73-5.05-5.017-10.067-7.781-14.68-1.161-2.29-2.355-4.142-3.516-6.432l-3.583-5.557c-1.194-1.852-2.423-3.267-3.651-4.682l-3.685-4.245c-1.228-1.415-2.49-2.393-3.753-3.371-1.262-.977-2.558-1.518-3.854-2.058-2.592-1.081-5.218-1.725-7.946-1.056-2.694.231-5.047 1.808-6.989 3.857-.989 1.243-1.943 2.049-2.966 3.729-.988 1.244-1.567 2.958-2.18 5.11-.579 1.715-1.192 3.867-1.361 6.054l-.543 6.996c-.203 2.624.037 5.282.277 7.94.239 2.659.889 5.788 1.095 8.884 1.298 6.259 3.484 12.588 6.079 19.388.751 1.818 1.536 3.198 2.287 5.016l1.126 2.727c.376.909.751 1.818 1.57 2.761.751 1.818 1.946 3.671 2.731 5.051 1.194 1.853 1.945 3.67 3.173 5.085 4.369 6.938 10.067 13.979 16.242 20.616 6.585 7.11 13.647 13.816 21.22 19.683Z"/>
    <path fill="#CC7E8F" d="m343.285 420.071 2.934 2.427c2.524 1.955 5.56 3.071 9.073 3.783l1.33.103c-9.177-8.19-15.491-18.798-17.713-30.408-3.314-14.775-.216-29.621 8.338-42.155.034-.438-.939-1.269-.905-1.706-.785-1.38-.951-2.03-1.736-3.411-.375-.909-1.325-2.513-1.735-2.985a8.059 8.059 0 0 0-1.301-2.132c-.785-1.381-1.828-2.918-2.17-4.264-2.73-5.051-3.828-9.594-6.593-14.208-1.16-2.289-2.354-4.142-3.515-6.431l-3.583-5.557c-1.195-1.852-2.423-3.267-3.651-4.682l-3.685-4.246c-1.228-1.415-2.491-2.392-3.753-3.37-1.262-.978-2.558-1.518-3.854-2.058-2.592-1.081-5.219-1.725-7.946-1.057-2.694.231-5.047 1.809-6.99 3.858-.988 1.243-1.943 2.049-2.965 3.729-.988 1.243-1.567 2.958-2.18 5.11-.579 1.715-1.192 3.867-1.362 6.053l-.542 6.997c-.203 2.624.036 5.282.276 7.94.24 2.658.89 5.788 1.096 8.884 1.298 6.259 3.484 12.587 6.078 19.387.751 1.818 1.536 3.199 2.287 5.017l1.127 2.727c.376.909.751 1.818 1.57 2.761.751 1.818 1.945 3.67 2.73 5.051 1.195 1.852 1.946 3.67 3.174 5.085 4.368 6.938 10.067 13.978 16.242 20.616 5.289 6.569 12.351 13.276 19.924 19.142Z"/>
    <path fill="#F5BCC7" d="M456.316 331.364c6.933-1.415 13.064-2.614 19.596-3.922l4.412-1.189c4.412-1.19 18.162-5.013 3.314 9.1-4.933 7.236-8.428 8.633-16.108 12.066-7.679 3.434-14.445 10.256-20.397 4.138-.513-3.496-6.181-6.964-4.059-10.262 6.195-8.939 13.242-9.931 13.242-9.931Zm-172.201-149.04c-2.316 6.86-5.041 13.247-7.767 19.635-1.056 2.117-1.635 3.832-2.657 5.512-.034.438-.511.841-.545 1.278-3.612 6.319-7.258 13.075-11.28 18.922-.988 1.243-2.01 2.923-2.999 4.167-.988 1.243-1.533 2.52-2.488 3.326-3.953 4.973-7.873 9.508-12.236 14.009 2.016 8.514 6.35 15.889 13.548 20.846 7.164 5.395 15.861 8.269 24.796 8.082 1.291-10.898 3.468-21.727 6.976-32.453.545-1.278.647-2.59 1.192-3.867.579-1.715 1.158-3.43 1.771-5.582l.034-.437c1.056-2.118 1.703-4.707 2.759-6.825.034-.437.545-1.277 1.056-2.118 1.635-3.832 3.714-7.63 5.792-11.428-3.074-12.117-10.275-22.793-17.952-33.067Z"/>
    <path fill="url(#c)" d="M334.146 541.17c4.8-116.366-10.931-176.852-10.976-199.292 14.832-7.208 13.194-9.095 13.194-9.095 11.327-65.55-45.014-75.197-46.31-75.738l-.444-.034c-3.035-1.115-5.661-1.759-8.731-2.437-10.982-2.171-20.464-6.426-31.548-7.285l-.886-.069c-2.217-.172-4.468.094-6.718.359-3.615.6-7.263 1.637-10.502 3.145-.921.369-1.398.772-2.319 1.14-11.148 5.735-30.241 16.132-47.388 30.2-5.318 5.306-10.226 11.085-13.872 17.841 2.118 7.203 2.487 26.195 22.406 33.898 0 0 12.185-8.34 19.143-6.041 6.276 2.074 8.545 7.857 9.453 16.935 2.62 26.201-27.502 99.527-58.101 154.784 5.159 14.134 48.648 35.985 70.678 44.76l49.654 27.866s48.466 85.428 53.267-30.937Z"/>
    <path fill="#CC7E8F" d="M284.116 182.324c-2.316 6.859-5.041 13.247-7.767 19.634-1.056 2.118-1.635 3.833-2.657 5.513-.034.438-.511.841-.545 1.278-3.612 6.319-13.734 21.811-18.232 28.061 11.047-4.423 25.745-4.163 37.478-.174l.034-.437c1.056-2.118 1.703-4.707 2.759-6.825.034-.437.545-1.277 1.056-2.117 1.635-3.833 3.714-7.631 5.792-11.429-3.04-12.554-10.241-23.23-17.918-33.504Z"/>
    <path fill="#F5B7C3" d="M323.909 175.292c-3.936-.858-13.642-2.378-20.735-2.928-7.128-.113-14.391 1.524-19.231 6.428-3.375 3.257-5.078 7.964-6.747 12.234-1.09 2.555-1.771 5.582-2.861 8.137-.511.84-1.056 2.118-1.567 2.958l-.136 1.749c.209 8.815 2.157 18.204 7.889 24.807 5.698 7.041 15.658 10.893 23.909 8.013 7.808-2.914 12.852-10.441 14.826-18.647 2.384-7.734 2.585-16.076 4.559-24.282 1.192-3.867 1.404-5.444 4.063-10.967 1.311-2.724-.033-6.644-3.969-7.502Z"/>
    <path stroke="#fff" stroke-linecap="round" stroke-width="5" d="m304.575 186.073-1.205 5.448m11.271-2.213-1.084 5.757"/>
    <path fill="#F5B7C3" d="M279.34 189.622c.849-1.598 1.372-3.728.285-4.898-.982-1.596-3.246-1.699-4.75-1.165-4.41 1.177-8.046 4.801-8.227 9.273-.612 4.365 1.902 9.047 6.012 10.958 2.445-4.368 4.235-9.8 6.68-14.168Z"/>
    <path fill="#F5BCC7" d="M283.609 269.39c-4.603 1.842-10.366 1.395-15.175.143-7.879-1.931-14.292-5.508-19.137-12.042-3.651-4.682-3.719-3.808-6.825-9.768 2.251-.265 4.569-1.405 6.343-1.268l2.216.172c11.527.894 19.236 5.011 30.218 7.182 3.07.678 5.628 2.196 8.663 3.312.342 1.346.274 2.221-.237 3.061-1.327 5.616-4.225 8.471-6.066 9.208Zm-142.403 93.09-3.239 1.458c-3.205 1.036-6.376 1.649-9.446.993l-1.33-.099c-2.626-.623-12.927-5.648-13.61-8.251l-2.254-5.273-1.126-2.636c-.308-1.724-.683-2.603-1.059-3.482-.717-2.18-1.434-4.36-2.561-6.997-.717-2.18-4.407-17.342-5.124-19.523-.717-2.18-1.434-4.36-1.674-6.93-.718-2.18-.991-4.328-1.708-6.508-.274-2.147-.991-4.327-1.265-6.474-.274-2.147-.991-4.328-1.265-6.475-.376-.879-.274-2.147-.65-3.026-.375-.878-.273-2.147-.649-3.025l-.821-6.442c-.242-8.099-.485-16.198-.795-23.451.135-1.691-.138-3.838-.003-5.529l.407-5.074.78-9.723c.237-2.96.918-5.886 1.155-8.845.102-1.268.204-2.537.783-4.195.102-1.268.647-2.503.748-3.771.817-4.618 2.042-8.779 3.2-12.094 1.158-3.316 2.248-5.786 3.271-7.411 1.022-1.624 1.976-2.403 2.863-2.337.887.066 1.706.978 2.457 2.736.751 1.758 1.434 4.361 2.049 7.809.616 3.449 1.197 7.32 2.154 12.07.342 1.302.274 2.147.616 3.449.342 1.301.24 2.57.581 3.871.24 2.57.924 5.173 1.573 8.199.649 3.026.889 5.596 1.538 8.622.308 1.724.65 3.025.958 4.75.307 1.724.649 3.026.957 4.75 1.264 6.474 3.382 13.438 5.499 20.402.751 1.757 4.032 16.464 4.783 18.221.376.879.751 1.758.683 2.603l1.127 2.637c.751 1.757 1.025 3.904 1.776 5.662.751 1.757 1.468 3.938 2.219 5.695.751 1.758.717 2.18 1.468 3.938l1.127 2.636.375.879c.444.033.921-.356 1.398-.746.955-.779 2.42-2.37 4.807-4.318 5.283-4.708 6.272-5.909 10.635-10.261.954-.779 1.943-1.981 2.897-2.76.034-.422.477-.389.511-.812.989-1.202 1.977-2.404 3.375-3.149.477-.39.988-1.202 1.466-1.592.477-.389.988-1.202 1.465-1.591.989-1.202 1.943-1.981 2.932-3.183 3.885-3.962 7.771-7.924 11.623-11.463 1.909-1.558 4.428-2.614 5.894-4.205 1.909-1.558 3.072-1.927 4.504-3.096 1.875-1.135 5.301-1.934 7.176-3.07 1.431-1.168 3.973-2.474 5.814-3.187 1.398-.745 2.762-1.068 4.569-1.358 1.364-.323.853.489 2.183.589 2.694-.224 4.738-3.473 7.33-2.428 2.149 1.012 4.23 2.869 5.8 5.539.785 1.334 1.127 2.636 1.435 4.36l.923 5.173c.308 1.724.138 3.838-.032 5.952-.169 2.114-.782 4.194-1.429 6.698-.647 2.503-1.737 4.973-2.383 7.477-1.091 2.47-2.215 5.363-3.748 7.8-3.101 5.296-6.679 10.982-11.587 16.569-.988 1.202-2.454 2.793-3.886 3.962-.511.812-1.432 1.168-1.943 1.98-.511.813-1.432 1.169-1.943 1.981-1.431 1.169-2.897 2.76-4.329 3.929s-2.897 2.76-4.772 3.895c-6.205 5.064-13.329 10.484-21.273 14.993-8.421 4.897-16.774 8.95-25.98 12.513Z"/>
    <path fill="#DE96A6" d="m141.209 362.435-3.241 1.48c-3.207 1.052-6.379 1.676-9.448 1.015l-1.33-.1c11.121-5.196 20.266-13.556 25.967-23.466 7.271-12.808 8.542-28.65 4.32-42.749.035-.428.478-.395.512-.823.99-1.218 1.98-2.436 3.378-3.193.478-.395.99-1.218 1.468-1.613s.99-1.218 1.467-1.613c.99-1.218 1.945-2.008 2.935-3.226 3.89-4.015 7.78-8.031 11.636-11.619 1.911-1.579 3.821-3.159 5.289-4.772 1.911-1.58 3.684-1.447 5.117-2.631 1.876-1.152 4.571-1.381 6.004-2.565 1.433-1.185 3.206-1.052 5.048-1.776 1.399-.756 2.492-3.259 3.856-3.587 1.364-.329 3.069.661 4.399.76 2.695-.228 4.743-3.521 7.334-2.465 2.148 1.023 4.227 2.901 5.795 5.603.783 1.351 1.124 2.669 1.43 4.415l.918 5.237c.306 1.746.134 3.887-.038 6.028-.171 2.14-.787 4.248-1.436 6.784-.649 2.535-1.742 5.038-2.391 7.573-1.093 2.503-2.22 5.434-3.756 7.903-3.107 5.366-6.691 11.128-11.605 16.79-.99 1.218-2.457 2.831-3.89 4.015-.512.824-1.433 1.185-1.945 2.008s-1.433 1.185-1.945 2.008c-1.433 1.185-2.901 2.798-4.334 3.983-1.433 1.184-2.9 2.797-4.776 3.949-6.21 5.134-13.341 10.629-21.29 15.202-7.88 3.717-16.238 7.828-25.448 11.445Z"/>
    <path fill="#F5BCC7" d="M117.607 206.674c4.226-8.321-1.067-13.96-1.524-21.358-.286-.909-.057-2.162-.781-3.147-.856-2.729 4.094-29.873-9.12-1.985-3.712 7.979-7.977 11.558-9.139 20.402-1.085 8.426.992 14.675-2.93 33.264 3.293-.73 15.752-9.197 19.046-9.927.076-.418.221-8.927 4.448-17.249Z"/>
    <path fill="#FFFBFC" d="M307.65 218.367c-5.243 0-10.377-.76-15.125-5.471-1.104-.623-2.898.036-2.981 1.105-.249 3.204.725 5.705 2.849 8.019 2.656 2.892 6.538 4.805 10.014 4.538 2.904-.312 4.829-2.85 6.18-5.431.697-1.558.207-2.671-.937-2.76Z"/>
    <path fill="#253783" d="M157.995 294.22s1.464 27.875 32.672 39.533l4.539-2.723c6.171-4.801 11.431-8.403 15.111-15.596 5.247-10.151 13.971-24.872 23.722-29.835 14.865-7.646 8.747-38.035 8.747-38.035s-1.398.771-9.991 2.305c-13.162 2.939-34.132 8.791-52.098 21.916-6.137 4.363-11.864 9.198-16.806 15.414-2.386 2.014-4.363 4.5-5.896 7.021Z"/>
  </g>
  <path fill="url(#d)" d="M119.243 157.573c-45.673-2.883-78.215-9.617-91.95-12.895-1.995-.476-1.956-3.107.044-3.557 10.512-2.367 30.472-6.585 47.232-8.522 20.75-2.399 112.896 3.085 137.435 4.612 1.927.12 2.42 2.449.698 3.322-12.338 6.254-45.538 20.065-93.459 17.04Z"/>
  <path fill="url(#e)" d="M178.024 142h-51l-3-51h58l-4 51Z"/>
  <path fill="#253472" d="M108.024 142h19l-3-51h-23.5l7.5 51Z"/>
  <path fill="#E10E41" d="m130.024 71 52 20h-58l6-20Z"/>
  <path fill="#AB062E" d="m130.024 71-29.5 20h23.5l6-20Z"/>
  <path fill="url(#f)" d="M59.235 36.34c-3.4 2-9.4 10.6-11.8 21-2.4 10.4-9.2 37.21 1.2 47.61 10.4 10.4 29 5.41 33.21 0 4.21-5.41 5.8-12.2 3.6-24.81-2.2-12.61-5.4-37.61-16-43.81-4.71-2.99-10.21.01-10.21.01Z"/>
  <path fill="#000" d="m61.965 63.31.52 25.85.82 40.84.19 9.32c0 .69 2.48.88 2.47.37l-.52-25.85-.82-40.84-.19-9.32c0-.69-2.48-.89-2.47-.37Z"/>
  <path fill="#000" d="M71.334 79.96a9.61 9.61 0 0 1-4 7.53 8.27 8.27 0 0 1-4.16 1.26c-.13 0-.4 0-.46.17s.12.35.22.44a2.59 2.59 0 0 0 1.64.65 9 9 0 0 0 6.92-3.25 10.82 10.82 0 0 0 2-4.77c.069-.367.112-.737.13-1.11 0-.78-2.3-1.38-2.32-.92h.03Zm-15.44-10.53a8.72 8.72 0 0 0 4.16 7.42 7.51 7.51 0 0 0 3.76 1c.54 0 .38-.56.17-.86-.21-.3-.85-1-1.4-1a7.56 7.56 0 0 1-.83 0h-.68c.08 0 .08 0 0 0a5.177 5.177 0 0 1-.67-.2c-.11 0-.29-.12-.08 0l-.34-.16a1.082 1.082 0 0 1-.26-.14c.19.18.16.1.07 0l-.14-.09c-.05 0-.31-.24-.12-.08.19.16-.1-.1-.15-.14l-.09-.09c-.14-.12.11.11.11.11a1.995 1.995 0 0 0-.2-.22c-.06-.06-.11-.13-.17-.2-.06-.07.18.26.06.08l-.1-.14c-.1-.15-.18-.29-.27-.44-.09-.15.09.19 0 .06l-.06-.12a1.345 1.345 0 0 1-.12-.24 4.32 4.32 0 0 1-.19-.45 2.332 2.332 0 0 1-.09-.24c-.09-.22 0 .14 0-.07a10 10 0 0 1-.35-1.6c0-.2 0-.39-.05-.58-.05-.19 0-.28 0 0v-.05a1.81 1.81 0 0 0-.88-1.32c-.16-.1-1.11-.61-1.11-.08l.02-.16Zm-6.41 19.9a15.89 15.89 0 0 0 1 4.56 13.42 13.42 0 0 0 5.89 7.17 14.32 14.32 0 0 0 6.94 1.68c1.62 0 1.11-2.15-.29-2.15a13.627 13.627 0 0 1-3-.31c-.41-.092-.814-.209-1.21-.35a6.91 6.91 0 0 1-1-.43 9.13 9.13 0 0 1-3.18-2.61 11.1 11.1 0 0 1-1.82-3.27c-.09-.25-.18-.51-.26-.76-.08-.25-.09-.27-.13-.41-.04-.14 0-.11 0-.16-.06-.22 0 .2 0-.07-.11-.45-.21-.89-.29-1.34a11.733 11.733 0 0 1-.19-1.45c-.06-1.29-2.46-1.6-2.39-.1h-.07Z"/>
  <path fill="#fff" d="m141.431 103.281-.395 6.779c-.03.281-.002.57.082.828s.219.475.388.622c.455.378.979.544 1.502.475.616-.035 1.215-.301 1.737-.773.347-.325.836-.854.873-1.505l.395-6.778c.03-.28.002-.567-.08-.825a1.425 1.425 0 0 0-.38-.626c-.46-.373-.987-.534-1.512-.461-.614.04-1.211.301-1.737.76-.348.338-.827.854-.873 1.518v-.014Zm17 15.586-.395 5.545c-.03.231-.002.467.082.678.084.212.219.389.388.509.455.31.979.445 1.502.388a3.159 3.159 0 0 0 1.737-.632c.347-.266.836-.699.873-1.231l.395-5.546a1.38 1.38 0 0 0-.08-.675 1.152 1.152 0 0 0-.38-.512 2.257 2.257 0 0 0-1.512-.377 3.29 3.29 0 0 0-1.737.621c-.348.278-.827.699-.873 1.243v-.011Zm-2.913-15.575-.472 6.768a1.6 1.6 0 0 0 .084.835c.101.26.269.475.478.613.543.384 1.174.55 1.801.474a3.816 3.816 0 0 0 2.081-.758c.417-.338 1.002-.866 1.047-1.516l.472-6.768c.038-.28.005-.567-.093-.825a1.383 1.383 0 0 0-.458-.623 2.595 2.595 0 0 0-1.812-.474c-.735.04-1.451.3-2.081.758-.417.338-.991.866-1.047 1.516Zm-11.494 15.847v5.43a2.77 2.77 0 0 0 .769 1.744c.445.45 1.026.693 1.626.679a2.591 2.591 0 0 0 1.804-.56 2.1 2.1 0 0 0 .555-.687c.138-.271.223-.573.246-.884v-5.43a2.762 2.762 0 0 0-.768-1.743 2.211 2.211 0 0 0-1.626-.68 2.551 2.551 0 0 0-1.794.561c-.23.179-.422.412-.562.684a2.306 2.306 0 0 0-.25.886Z"/>
  <defs>
    <linearGradient id="b" x1="341.019" x2="178.543" y1="344.334" y2="-3.556" gradientUnits="userSpaceOnUse">
      <stop stop-color="#E05896"/>
      <stop offset=".349" stop-color="#682323"/>
      <stop offset=".953" stop-color="#553552"/>
    </linearGradient>
    <linearGradient id="c" x1="193.006" x2="370.991" y1="422.818" y2="311.807" gradientUnits="userSpaceOnUse">
      <stop stop-color="#253472"/>
      <stop offset="1" stop-color="#233996"/>
    </linearGradient>
    <linearGradient id="d" x1="226.524" x2="61.524" y1="135.5" y2="146.5" gradientUnits="userSpaceOnUse">
      <stop stop-color="#253472"/>
      <stop offset="1" stop-color="#344691"/>
    </linearGradient>
    <linearGradient id="e" x1="183.024" x2="135.524" y1="85" y2="172.5" gradientUnits="userSpaceOnUse">
      <stop stop-color="#253472"/>
      <stop offset=".474" stop-color="#394A91"/>
      <stop offset="1" stop-color="#4256A9"/>
    </linearGradient>
    <linearGradient id="f" x1="100.024" x2="55.524" y1="35" y2="122.5" gradientUnits="userSpaceOnUse">
      <stop offset="0" stop-color="#3D4F98"/>
      <stop offset="1" stop-color="#253472"/>
    </linearGradient>
  </defs>
</svg>
